<?xml version="1.0" encoding="utf-8"?>
<!-- Generator: Adobe Illustrator 19.2.1, SVG Export Plug-In . SVG Version: 6.00 Build 0)  -->
<svg version="1.1" id="Layer_1" xmlns="http://www.w3.org/2000/svg" xmlns:xlink="http://www.w3.org/1999/xlink" x="0px" y="0px"
	 viewBox="0 0 792 612" style="enable-background:new 0 0 792 612;" xml:space="preserve">
<style type="text/css">
	.st0{fill:none;stroke:#000000;stroke-miterlimit:10;}
	.st1{fill:none;stroke:#973727;stroke-width:0.9252;stroke-miterlimit:10;}
	.st2{fill:none;stroke:#000000;stroke-width:0.9252;stroke-miterlimit:10;}
	.st3{fill:#FFFFFF;stroke:#000000;stroke-miterlimit:10;}
	.st4{fill:none;stroke:#000000;stroke-width:2.376;stroke-miterlimit:10;}
	.st5{fill:#FFFFFF;stroke:#000000;stroke-width:2.0244;stroke-miterlimit:10;}
	.st6{fill:none;stroke:#973727;stroke-width:1.2618;stroke-miterlimit:10;}
	.st7{fill:none;stroke:#973727;stroke-width:1.8504;stroke-miterlimit:10;}
</style>
<sodipodi:namedview  bordercolor="#666666" borderopacity="1" gridtolerance="10" guidetolerance="10" id="namedview177" inkscape:current-layer="g21" inkscape:cx="256.27947" inkscape:cy="132.64671" inkscape:pageopacity="0" inkscape:pageshadow="2" inkscape:window-height="1177" inkscape:window-maximized="1" inkscape:window-width="1858" inkscape:window-x="-8" inkscape:window-y="-8" inkscape:zoom="2.8284271" objecttolerance="10" pagecolor="#ffffff" showgrid="false">
	</sodipodi:namedview>
<desc  id="desc4">
	C:\Users\forre\OneDrive\Documents\VBOX_SHARE\Ergodox\ErgoDOX Acrylic Case - Designed by Litster\Standard\Left\ErgoDOX Case Layer 1 Top - Left.dxf - scale = 1.000000, origin = (0.000000, 0.000000), auto = False
	</desc>
<path id="path23" class="st0" d="M-1404.6-233.9c0,9.6,5.6,18.4,14.3,22.5"/>
<path id="path25" class="st0" d="M-1940.3-418.2c-2,0-3.5,1.6-3.5,3.5l0,0"/>
<path id="path27" class="st0" d="M-1943.8-150c0,2,1.6,3.5,3.5,3.5"/>
<path id="path29" class="st0" d="M-1259.9-123.3l-92,197.3"/>
<path id="path31" class="st0" d="M-1384.8,86l-281.9-131.4"/>
<path id="path33" class="st0" d="M-1611-522.5c0-2.9-2.4-5.3-5.3-5.3c-2.9,0-5.3,2.4-5.3,5.3c0,2.9,2.4,5.3,5.3,5.3
	C-1613.4-517.2-1611-519.6-1611-522.5z"/>
<path id="path35" class="st0" d="M-1677.2-47.7h-273.3"/>
<g>
	<path id="path35_5_" class="st1" d="M-1671.7-47.6h-281.4"/>
	<path id="path35_4_" class="st1" d="M-1671.7-47.6l255.1,118.9"/>
</g>
<g>
	<path id="path35_7_" class="st1" d="M-1765,386.7h281.4"/>
	<path id="path35_6_" class="st1" d="M-1765,386.7l-255-118.8"/>
</g>
<path id="path37" class="st0" d="M-1421.5-516c0-2.9-2.4-5.3-5.3-5.3s-5.3,2.4-5.3,5.3c0,2.9,2.4,5.3,5.3,5.3
	C-1423.8-510.7-1421.5-513.1-1421.5-516z"/>
<path id="path39" class="st0" d="M-1950.5-538.2c-13.7,0-24.8,11.1-24.8,24.8l0,0"/>
<path id="path41" class="st0" d="M-1404.6-513.4c0-13.7-11.1-24.8-24.8-24.8"/>
<path id="path43" class="st0" d="M-1975.3-72.5c0,13.7,11.1,24.8,24.8,24.8l0,0"/>
<path id="path45" class="st0" d="M-1384.8,86c12.4,5.8,27.2,0.4,33-12"/>
<path id="path47" class="st0" d="M-1259.9-123.3c5.8-12.4,0.4-27.2-12-33l0,0"/>
<path id="path49" class="st0" d="M-1273.6-135c0-2.9-2.4-5.3-5.3-5.3c-2.9,0-5.3,2.4-5.3,5.3s2.4,5.3,5.3,5.3
	C-1275.9-129.7-1273.6-132.1-1273.6-135L-1273.6-135z"/>
<path id="path51" class="st0" d="M-1666.7-45.4c-3.3-1.5-6.9-2.3-10.5-2.3"/>
<path id="path53" class="st0" d="M-1367.8,67c0-2.9-2.4-5.3-5.3-5.3c-2.9,0-5.3,2.4-5.3,5.3s2.4,5.3,5.3,5.3
	C-1370.1,72.3-1367.8,70-1367.8,67L-1367.8,67z"/>
<path id="path55" class="st0" d="M-1662.9-63.5c0-2.9-2.4-5.3-5.3-5.3c-2.9,0-5.3,2.4-5.3,5.3c0,2.9,2.4,5.3,5.3,5.3
	C-1665.3-58.2-1662.9-60.6-1662.9-63.5z"/>
<path id="path57" class="st0" d="M-1947.8-75.6c0-2.9-2.4-5.3-5.3-5.3c-2.9,0-5.3,2.4-5.3,5.3l0,0c0,2.9,2.4,5.3,5.3,5.3
	C-1950.2-70.3-1947.8-72.6-1947.8-75.6L-1947.8-75.6z"/>
<path id="path59" class="st0" d="M-1404.6-513.4v279.5"/>
<path id="path61" class="st0" d="M-1975.3-72.5v-440.9"/>
<path id="path63" class="st0" d="M-1950.5-538.2h521.2"/>
<path id="path65" class="st0" d="M-1943.8-150v-264.7"/>
<path id="path67" class="st0" d="M-1390.2-211.4l118.4,55.2"/>
<path id="path69" class="st0" d="M-1436.1-421.4V-190"/>
<path id="path71" class="st0" d="M-1947.8-516c0-2.9-2.4-5.3-5.3-5.3c-2.9,0-5.3,2.4-5.3,5.3l0,0c0,2.9,2.4,5.3,5.3,5.3
	C-1950.2-510.7-1947.8-513.1-1947.8-516L-1947.8-516z"/>
<path id="path73" class="st0" d="M-1484.2-153.2c-2,0-3.6,1.6-3.6,3.6c0,1.4,0.8,2.7,2.1,3.3"/>
<path id="path75" class="st0" d="M-1485.7-146.3l37.1,17.3"/>
<path id="path77" class="st0" d="M-1448.7-129c2.7,1.3,5.9,0.1,7.2-2.6l0,0"/>
<path id="path79" class="st0" d="M-1441.5-131.6l24.7-53"/>
<path id="path81" class="st0" d="M-1412-186.4c-1.8-0.8-3.9-0.1-4.8,1.7l0,0"/>
<path id="path83" class="st0" d="M-1412-186.4l117.5,54.8"/>
<path id="path85" class="st0" d="M-1292.8-126.8c0.8-1.8,0.1-3.9-1.7-4.8l0,0"/>
<path id="path87" class="st0" d="M-1292.8-126.8l-83.3,178.6"/>
<path id="path89" class="st0" d="M-1380.9,53.5c1.8,0.8,3.9,0.1,4.8-1.7"/>
<path id="path91" class="st0" d="M-1380.9,53.5l-178.6-83.3"/>
<path id="path93" class="st0" d="M-1561.2-34.5c-0.8,1.8-0.1,3.9,1.7,4.8"/>
<path id="path95" class="st0" d="M-1561.2-34.5l51.7-110.9"/>
<path id="path97" class="st0" d="M-1509.5-145.5c1.3-2.7,0.1-5.9-2.6-7.2c-0.7-0.3-1.5-0.5-2.3-0.5"/>
<path id="path99" class="st0" d="M-1514.4-153.2h-51.3"/>
<path id="path101" class="st0" d="M-1565.7-153.2c-3,0-5.4,2.4-5.4,5.4l0,0"/>
<path id="path103" class="st0" d="M-1571.1-147.8v54"/>
<path id="path105" class="st0" d="M-1574.7-90.2c2,0,3.6-1.6,3.6-3.6"/>
<path id="path107" class="st0" d="M-1574.7-90.2h-62.8"/>
<path id="path109" class="st0" d="M-1640.8-92.4c0.6,1.4,1.9,2.3,3.3,2.3"/>
<path id="path111" class="st0" d="M-1640.8-92.4c-0.8-2-2.8-3.4-5-3.4"/>
<path id="path113" class="st0" d="M-1645.8-95.8h-54.9"/>
<path id="path115" class="st0" d="M-1700.7-95.8c-2.2,0-4.2,1.3-5,3.4"/>
<path id="path117" class="st0" d="M-1709-90.2c1.5,0,2.8-0.9,3.3-2.3"/>
<path id="path119" class="st0" d="M-1709-90.2h-59.2"/>
<path id="path121" class="st0" d="M-1768.2-90.2c-3,0-5.4,2.4-5.4,5.4l0,0"/>
<path id="path123" class="st0" d="M-1773.6-84.8v2.3"/>
<path id="path125" class="st0" d="M-1777.2-78.9c2,0,3.6-1.6,3.6-3.6"/>
<path id="path127" class="st0" d="M-1777.2-78.9h-129.6"/>
<path id="path129" class="st0" d="M-1910.4-82.5c0,2,1.6,3.6,3.6,3.6"/>
<path id="path131" class="st0" d="M-1910.4-82.5V-141"/>
<path id="path133" class="st0" d="M-1910.4-141c0-3-2.4-5.4-5.4-5.4l0,0"/>
<path id="path135" class="st0" d="M-1915.8-146.4h-24.5"/>
<path id="path137" class="st0" d="M-1940.3-418.2h159.5"/>
<path id="path139" class="st0" d="M-1780.8-418.2c3,0,5.4-2.4,5.4-5.4l0,0"/>
<path id="path141" class="st0" d="M-1775.4-423.6v-2.3"/>
<path id="path143" class="st0" d="M-1771.8-429.5c-2,0-3.6,1.6-3.6,3.6"/>
<path id="path145" class="st0" d="M-1771.8-429.5h58.5"/>
<path id="path147" class="st0" d="M-1713.3-429.5c2.2,0,4.2-1.3,5-3.4"/>
<path id="path149" class="st0" d="M-1705-435.1c-1.5,0-2.8,0.9-3.3,2.3"/>
<path id="path151" class="st0" d="M-1705-435.1h63.4"/>
<path id="path153" class="st0" d="M-1638.2-432.8c-0.6-1.4-1.9-2.3-3.3-2.3"/>
<path id="path155" class="st0" d="M-1638.2-432.8c0.8,2,2.8,3.4,5,3.4"/>
<path id="path157" class="st0" d="M-1633.2-429.5h59.7"/>
<path id="path159" class="st0" d="M-1570.4-427.7c-0.6-1.1-1.8-1.8-3.1-1.8"/>
<path id="path161" class="st0" d="M-1570.4-427.7c1,1.7,2.7,2.7,4.7,2.7"/>
<path id="path163" class="st0" d="M-1565.7-425h126"/>
<path id="path165" class="st0" d="M-1436.1-421.4c0-2-1.6-3.6-3.6-3.6l0,0"/>
<path id="path167" class="st0" d="M-1436.1-421.4v264.6"/>
<path id="path169" class="st0" d="M-1439.7-153.2c2,0,3.6-1.6,3.6-3.6l0,0"/>
<path id="path171" class="st0" d="M-1439.7-153.2h-44.5"/>
<g id="text3418">
	<path id="path3423" class="st0" d="M-1934.3-68v9.8h5.4v-3.3c0-0.2,0-0.3,0.1-0.4c0.1-0.1,0.2-0.1,0.3-0.1s0.2,0,0.3,0.1
		c0.1,0.1,0.1,0.2,0.1,0.4v4.1h-9.1c-0.2,0-0.3,0-0.4-0.1c-0.1-0.1-0.1-0.2-0.1-0.3s0-0.2,0.1-0.3c0.1-0.1,0.2-0.1,0.4-0.1h2V-68h-2
		c-0.2,0-0.3,0-0.4-0.1c-0.1-0.1-0.1-0.2-0.1-0.3s0-0.2,0.1-0.3c0.1-0.1,0.2-0.1,0.4-0.1h4.7c0.2,0,0.3,0,0.4,0.1
		c0.1,0.1,0.1,0.2,0.1,0.3s0,0.2-0.1,0.3c-0.1,0.1-0.2,0.1-0.4,0.1L-1934.3-68L-1934.3-68z"/>
	<path id="path3425" class="st0" d="M-1920.5-69.8v11.6h2.8c0.2,0,0.3,0,0.4,0.1s0.1,0.2,0.1,0.3s0,0.2-0.1,0.3s-0.2,0.1-0.4,0.1
		h-6.4c-0.2,0-0.3,0-0.4-0.1s-0.1-0.2-0.1-0.3s0-0.2,0.1-0.3s0.2-0.1,0.4-0.1h2.8v-10.5l-2.7,0.8c-0.1,0-0.2,0.1-0.3,0.1
		s-0.2,0-0.3-0.1c-0.1-0.1-0.1-0.2-0.1-0.3s0-0.2,0.1-0.3c0.1-0.1,0.2-0.1,0.3-0.2L-1920.5-69.8L-1920.5-69.8z"/>
	<path id="path3427" class="st0" d="M-1892.7-63.7v1.2h-8.4v-1.2H-1892.7z"/>
	<path id="path3429" class="st0" d="M-1874.3-68v9.8h5.4v-3.3c0-0.2,0-0.3,0.1-0.4c0.1-0.1,0.2-0.1,0.3-0.1s0.2,0,0.3,0.1
		c0.1,0.1,0.1,0.2,0.1,0.4v4.1h-9.1c-0.2,0-0.3,0-0.4-0.1s-0.1-0.2-0.1-0.3s0-0.2,0.1-0.3c0.1-0.1,0.2-0.1,0.4-0.1h2V-68h-2
		c-0.2,0-0.3,0-0.4-0.1c-0.1-0.1-0.1-0.2-0.1-0.3s0-0.2,0.1-0.3c0.1-0.1,0.2-0.1,0.4-0.1h4.7c0.2,0,0.3,0,0.4,0.1
		c0.1,0.1,0.1,0.2,0.1,0.3s0,0.2-0.1,0.3c-0.1,0.1-0.2,0.1-0.4,0.1L-1874.3-68L-1874.3-68z"/>
	<path id="path3431" class="st0" d="M-1856.5-61.5h-8.4c0.1,1.1,0.6,1.9,1.3,2.6c0.7,0.6,1.7,1,2.8,1c0.6,0,1.3-0.1,1.9-0.3
		c0.7-0.2,1.2-0.5,1.6-0.8c0.1-0.1,0.2-0.1,0.3-0.1s0.2,0,0.3,0.1c0.1,0.1,0.1,0.2,0.1,0.3s-0.1,0.2-0.2,0.3
		c-0.3,0.3-0.9,0.6-1.7,0.9c-0.8,0.3-1.6,0.4-2.5,0.4c-1.4,0-2.6-0.5-3.5-1.4s-1.4-2-1.4-3.3c0-1.2,0.4-2.2,1.3-3.1
		c0.9-0.9,2-1.3,3.3-1.3c1.3,0,2.4,0.4,3.3,1.3C-1856.9-64-1856.4-62.8-1856.5-61.5z M-1857.3-62.3c-0.2-0.9-0.6-1.6-1.3-2.2
		c-0.7-0.6-1.5-0.8-2.5-0.8s-1.8,0.3-2.5,0.8c-0.7,0.6-1.1,1.3-1.3,2.2H-1857.3z"/>
	<path id="path3433" class="st0" d="M-1849.4-65v6.8h3.6c0.2,0,0.3,0,0.4,0.1s0.1,0.2,0.1,0.3s0,0.2-0.1,0.3s-0.2,0.1-0.4,0.1h-6.4
		c-0.2,0-0.3,0-0.4-0.1s-0.1-0.2-0.1-0.3s0-0.2,0.1-0.3s0.2-0.1,0.4-0.1h2V-65h-1.8c-0.2,0-0.3,0-0.4-0.1s-0.1-0.2-0.1-0.3
		s0-0.2,0.1-0.3s0.2-0.1,0.4-0.1h1.8V-67c0-0.7,0.3-1.3,0.8-1.8c0.6-0.5,1.3-0.8,2.2-0.8c0.8,0,1.6,0.1,2.5,0.2
		c0.3,0.1,0.5,0.1,0.6,0.2c0.1,0.1,0.1,0.2,0.1,0.3s0,0.2-0.1,0.3s-0.2,0.1-0.3,0.1s-0.1,0-0.3,0c-1-0.1-1.8-0.2-2.5-0.2
		c-0.7,0-1.3,0.2-1.7,0.5c-0.4,0.4-0.6,0.8-0.6,1.2v1.2h3.8c0.2,0,0.3,0,0.4,0.1c0.1,0.1,0.1,0.2,0.1,0.3s0,0.2-0.1,0.3
		c-0.1,0.1-0.2,0.1-0.4,0.1H-1849.4z"/>
	<path id="path3435" class="st0" d="M-1838.6-65.9h4.5c0.2,0,0.3,0,0.4,0.1c0.1,0.1,0.1,0.2,0.1,0.3s0,0.2-0.1,0.3
		c-0.1,0.1-0.2,0.1-0.4,0.1h-4.5v5.5c0,0.5,0.2,0.9,0.6,1.2s0.9,0.5,1.7,0.5c0.6,0,1.2-0.1,1.8-0.2c0.6-0.2,1.1-0.4,1.5-0.6
		c0.1-0.1,0.2-0.1,0.3-0.1c0.1,0,0.2,0,0.3,0.1s0.1,0.2,0.1,0.3s0,0.2-0.1,0.3c-0.2,0.2-0.7,0.4-1.5,0.7c-0.8,0.2-1.6,0.4-2.3,0.4
		c-1,0-1.7-0.2-2.3-0.7s-0.8-1.1-0.8-1.8V-65h-1.5c-0.2,0-0.3,0-0.4-0.1c-0.1-0.1-0.1-0.2-0.1-0.3s0-0.2,0.1-0.3
		c0.1-0.1,0.2-0.1,0.4-0.1h1.5v-2.4c0-0.2,0-0.3,0.1-0.4c0.1-0.1,0.2-0.1,0.3-0.1s0.2,0,0.3,0.1s0.1,0.2,0.1,0.4L-1838.6-65.9
		L-1838.6-65.9z"/>
	<path id="path3437" class="st0" d="M-1800.5-68.8v13.1h2c0.2,0,0.3,0,0.4,0.1c0.1,0.1,0.1,0.2,0.1,0.3s0,0.2-0.1,0.3
		c-0.1,0.1-0.2,0.1-0.4,0.1h-2.8v-14.8h2.8c0.2,0,0.3,0,0.4,0.1c0.1,0.1,0.1,0.2,0.1,0.3s0,0.2-0.1,0.3c-0.1,0.1-0.2,0.1-0.4,0.1h-2
		V-68.8z"/>
	<path id="path3439" class="st0" d="M-1790.6-65.9h4.5c0.2,0,0.3,0,0.4,0.1c0.1,0.1,0.1,0.2,0.1,0.3s0,0.2-0.1,0.3
		c-0.1,0.1-0.2,0.1-0.4,0.1h-4.5v5.5c0,0.5,0.2,0.9,0.6,1.2s0.9,0.5,1.7,0.5c0.6,0,1.2-0.1,1.8-0.2c0.6-0.2,1.1-0.4,1.5-0.6
		c0.1-0.1,0.2-0.1,0.3-0.1c0.1,0,0.2,0,0.3,0.1s0.1,0.2,0.1,0.3s0,0.2-0.1,0.3c-0.2,0.2-0.7,0.4-1.5,0.7c-0.8,0.2-1.6,0.4-2.3,0.4
		c-1,0-1.7-0.2-2.3-0.7c-0.6-0.4-0.8-1.1-0.8-1.8V-65h-1.5c-0.2,0-0.3,0-0.4-0.1c-0.1-0.1-0.1-0.2-0.1-0.3s0-0.2,0.1-0.3
		c0.1-0.1,0.2-0.1,0.4-0.1h1.5v-2.4c0-0.2,0-0.3,0.1-0.4c0.1-0.1,0.2-0.1,0.3-0.1s0.2,0,0.3,0.1c0.1,0.1,0.1,0.2,0.1,0.4
		L-1790.6-65.9L-1790.6-65.9z"/>
	<path id="path3441" class="st0" d="M-1772.4-61.6c0,1.3-0.4,2.3-1.3,3.2c-0.9,0.9-2,1.3-3.2,1.3c-1.3,0-2.4-0.4-3.3-1.3
		c-0.9-0.9-1.3-2-1.3-3.2c0-1.3,0.4-2.3,1.3-3.2c0.9-0.9,2-1.3,3.3-1.3c1.3,0,2.3,0.4,3.2,1.3C-1772.8-64-1772.4-62.9-1772.4-61.6z
		 M-1773.2-61.6c0-1-0.4-1.9-1.1-2.6c-0.7-0.7-1.6-1.1-2.7-1.1c-1.1,0-1.9,0.4-2.7,1.1c-0.7,0.7-1.1,1.6-1.1,2.6s0.4,1.9,1.1,2.6
		c0.7,0.7,1.6,1.1,2.7,1.1c1.1,0,1.9-0.4,2.7-1.1C-1773.6-59.7-1773.2-60.6-1773.2-61.6z"/>
	<path id="path3443" class="st0" d="M-1768-65.9v1.5c0.5-0.6,1-1,1.6-1.3s1.2-0.4,2-0.4c0.8,0,1.6,0.2,2.2,0.6
		c0.7,0.4,1.2,0.9,1.6,1.6c0.4,0.7,0.6,1.4,0.6,2.1c0,1.2-0.4,2.2-1.3,3c-0.8,0.8-1.9,1.3-3.1,1.3c-1.5,0-2.7-0.6-3.6-1.8v4.9h2
		c0.2,0,0.3,0,0.4,0.1s0.1,0.2,0.1,0.3s0,0.2-0.1,0.3s-0.2,0.1-0.4,0.1h-3.9c-0.2,0-0.3,0-0.4-0.1c-0.1-0.1-0.1-0.2-0.1-0.3
		s0-0.2,0.1-0.3c0.1-0.1,0.2-0.1,0.4-0.1h1.1V-65h-1.1c-0.2,0-0.3,0-0.4-0.1c-0.1-0.1-0.1-0.2-0.1-0.3s0-0.2,0.1-0.3
		c0.1-0.1,0.2-0.1,0.4-0.1h1.9V-65.9z M-1760.9-61.9c0-0.9-0.3-1.8-1-2.4c-0.7-0.7-1.5-1-2.5-1s-1.8,0.3-2.5,1c-0.7,0.7-1,1.5-1,2.4
		s0.3,1.8,1,2.4c0.7,0.7,1.5,1,2.5,1s1.8-0.3,2.5-1C-1761.3-60.1-1760.9-61-1760.9-61.9z"/>
	<path id="path3445" class="st0" d="M-1753.4-55.7v-13.1h-2c-0.2,0-0.3,0-0.4-0.1s-0.1-0.2-0.1-0.3s0-0.2,0.1-0.3s0.2-0.1,0.4-0.1
		h2.8v14.8h-2.8c-0.2,0-0.3,0-0.4-0.1s-0.1-0.2-0.1-0.3s0-0.2,0.1-0.3s0.2-0.1,0.4-0.1h2V-55.7z"/>
</g>
<g>
	<path id="path31_3_" class="st0" d="M-2186.7,11l-281.9-131.4"/>
	<path id="path35_3_" class="st0" d="M-2479.2-122.8h-273.3"/>
</g>
<path id="path35_8_" class="st2" d="M-1783.7-81.6h-281.4"/>
<path class="st0" d="M-1950.5,912.8"/>
<path class="st3" d="M-1204.6-381.7"/>
<g>
	<line class="st0" x1="-1950.5" y1="-47.6" x2="-1950.5" y2="300.3"/>
	<line class="st0" x1="-1756.6" y1="343.2" x2="-1683.2" y2="11.8"/>
	<line class="st0" x1="-1562.7" y1="386.2" x2="-1415.8" y2="71.3"/>
</g>
<line class="st0" x1="-1648.2" y1="569.7" x2="-1562.7" y2="386.2"/>
<path class="st4" d="M-1047.6,153"/>
<line class="st4" x1="-1950.5" y1="-47" x2="-1415.9" y2="71.4"/>
<line class="st4" x1="-2322.2" y1="217.9" x2="-1047.6" y2="500.4"/>
<rect x="-541.7" y="-614.3" class="st5" width="108" height="442.6"/>
<rect x="-433.7" y="-614.3" class="st5" width="108" height="442.6"/>
<rect x="-325.7" y="-614.3" class="st5" width="108" height="442.6"/>
<rect x="-757.7" y="-614.3" class="st5" width="108" height="442.6"/>
<rect x="-649.7" y="-614.3" class="st5" width="108" height="442.6"/>
<g>
	<g>
		<path id="path35_12_" class="st1" d="M-487.7-616l-275,59.7"/>
		<path id="path35_11_" class="st1" d="M-487.7-616l274.5,62"/>
	</g>
	<g>
		<path id="path35_10_" class="st1" d="M-486.6-171.8l275-59.7"/>
		<path id="path35_9_" class="st1" d="M-486.6-171.8l-274.5-62"/>
	</g>
	<g>
		<line class="st0" x1="-760.1" y1="-556.8" x2="-686.3" y2="-216.9"/>
		<line class="st0" x1="-487.7" y1="-216" x2="-486.3" y2="-555.5"/>
		<line class="st0" x1="-289.1" y1="-215.2" x2="-212.4" y2="-554.1"/>
	</g>
</g>
<g>
	<path id="path35_14_" class="st1" d="M383.8-616l-255.1,55.9"/>
	<path id="path35_13_" class="st1" d="M383.8-616l254.3,57.7"/>
</g>
<g>
	<path id="path35_16_" class="st1" d="M388.8-304.6l255.1-55.9"/>
	<path id="path35_15_" class="st1" d="M388.8-304.6l-254.3-57.7"/>
</g>
<g>
	<path id="path35_2_" class="st1" d="M384.9-171.8l197.5-42.9"/>
	<path id="path35_1_" class="st1" d="M384.9-171.8l-199.5-45.1"/>
</g>
<g>
	<line class="st0" x1="305.7" y1="-236.2" x2="307.1" y2="-575.7"/>
	<line class="st0" x1="482.4" y1="-235.4" x2="559.1" y2="-574.3"/>
</g>
<line class="st0" x1="207.9" y1="-577.7" x2="281.7" y2="-237.8"/>
<line class="st0" x1="-707.5" y1="658.4" x2="-360.1" y2="658.4"/>
<rect x="-1012.6" y="-330.9" class="st5" width="81" height="81"/>
<line class="st0" x1="-791.3" y1="608.4" x2="-791.3" y2="446.4"/>
<line class="st0" x1="-248.9" y1="608.4" x2="-248.9" y2="527.4"/>
<line class="st3" x1="-1062.5" y1="405.9" x2="22.3" y2="567.9"/>
<line class="st0" x1="-791.3" y1="608.4" x2="-248.9" y2="608.4"/>
<line class="st0" x1="-248.9" y1="365.7" x2="-248.9" y2="527.7"/>
<line class="st0" x1="-791.3" y1="365.7" x2="-791.3" y2="446.7"/>
<line class="st3" x1="22.3" y1="568.2" x2="-1062.5" y2="406.2"/>
<line class="st0" x1="-248.9" y1="365.7" x2="-791.3" y2="365.7"/>
<line class="st0" x1="-791.3" y1="325.6" x2="-791.3" y2="163.6"/>
<line class="st0" x1="-248.9" y1="325.6" x2="-248.9" y2="244.6"/>
<line class="st3" x1="-1062.5" y1="123.1" x2="22.3" y2="285.1"/>
<line class="st0" x1="-791.3" y1="325.6" x2="-248.9" y2="325.6"/>
<line class="st0" x1="-248.9" y1="82.9" x2="-248.9" y2="244.9"/>
<line class="st0" x1="-791.3" y1="82.9" x2="-791.3" y2="163.9"/>
<line class="st3" x1="22.3" y1="285.4" x2="-1062.5" y2="123.4"/>
<line class="st0" x1="-248.9" y1="82.9" x2="-791.3" y2="82.9"/>
<line class="st6" x1="52.7" y1="574.5" x2="706.3" y2="574.5"/>
<line class="st1" x1="555.2" y1="574.3" x2="555.2" y2="412.3"/>
<line class="st1" x1="203.8" y1="574.3" x2="203.8" y2="484.3"/>
<line class="st7" x1="28.1" y1="520.3" x2="730.9" y2="376.3"/>
<line class="st6" x1="706.3" y1="322.2" x2="52.7" y2="322.2"/>
<line class="st1" x1="203.8" y1="322.4" x2="203.8" y2="484.4"/>
<line class="st1" x1="555.2" y1="322.4" x2="555.2" y2="412.4"/>
<line class="st7" x1="730.9" y1="376.4" x2="28.1" y2="520.4"/>
<line class="st6" x1="52.7" y1="299.6" x2="706.3" y2="299.6"/>
<line class="st1" x1="555.2" y1="299.3" x2="555.2" y2="137.3"/>
<line class="st1" x1="203.8" y1="299.3" x2="203.8" y2="209.3"/>
<line class="st7" x1="28.1" y1="245.3" x2="730.9" y2="101.3"/>
<line class="st6" x1="706.3" y1="47.2" x2="52.7" y2="47.2"/>
<line class="st1" x1="203.8" y1="47.5" x2="203.8" y2="209.5"/>
<line class="st1" x1="555.2" y1="47.5" x2="555.2" y2="137.5"/>
<line class="st7" x1="730.9" y1="101.5" x2="28.1" y2="245.5"/>
</svg>
