<?xml version="1.0" encoding="utf-8"?>
<!-- Generator: Adobe Illustrator 19.2.1, SVG Export Plug-In . SVG Version: 6.00 Build 0)  -->
<svg version="1.1" xmlns="http://www.w3.org/2000/svg" xmlns:xlink="http://www.w3.org/1999/xlink" x="0px" y="0px"
	 viewBox="0 0 744.1 1083.4" style="enable-background:new 0 0 744.1 1083.4;" xml:space="preserve">
<style type="text/css">
	.st0{fill:none;stroke:#000000;stroke-miterlimit:10;}
	.st1{fill:none;stroke:#973727;stroke-width:0.9252;stroke-miterlimit:10;}
	.st2{fill:none;stroke:#000000;stroke-width:0.9252;stroke-miterlimit:10;}
	.st3{fill:#FFFFFF;stroke:#000000;stroke-miterlimit:10;}
	.st4{fill:none;stroke:#000000;stroke-width:2.376;stroke-miterlimit:10;}
	.st5{fill:#FFFFFF;stroke:#000000;stroke-width:2.0244;stroke-miterlimit:10;}
</style>
<g id="svg2" inkscape:version="0.91 r13725" sodipodi:docname="ErgoDOX Case Layer 1 Top - Left.svg" xmlns:cc="http://creativecommons.org/ns#" xmlns:dc="http://purl.org/dc/elements/1.1/" xmlns:inkscape="http://www.inkscape.org/namespaces/inkscape" xmlns:rdf="http://www.w3.org/1999/02/22-rdf-syntax-ns#" xmlns:sodipodi="http://sodipodi.sourceforge.net/DTD/sodipodi-0.dtd" xmlns:svg="http://www.w3.org/2000/svg">
	
		<sodipodi:namedview  bordercolor="#666666" borderopacity="1" gridtolerance="10" guidetolerance="10" id="namedview177" inkscape:current-layer="g21" inkscape:cx="256.27947" inkscape:cy="132.64671" inkscape:pageopacity="0" inkscape:pageshadow="2" inkscape:window-height="1177" inkscape:window-maximized="1" inkscape:window-width="1858" inkscape:window-x="-8" inkscape:window-y="-8" inkscape:zoom="2.8284271" objecttolerance="10" pagecolor="#ffffff" showgrid="false">
		</sodipodi:namedview>
	<desc  id="desc4">
		C:\Users\forre\OneDrive\Documents\VBOX_SHARE\Ergodox\ErgoDOX Acrylic Case - Designed by Litster\Standard\Left\ErgoDOX Case Layer 1 Top - Left.dxf - scale = 1.000000, origin = (0.000000, 0.000000), auto = False
		</desc>
	<path id="path23" class="st0" d="M641.6,363.7c0,9.6,5.6,18.4,14.3,22.5"/>
	<path id="path25" class="st0" d="M105.9,179.4c-2,0-3.5,1.6-3.5,3.5l0,0"/>
	<path id="path27" class="st0" d="M102.4,447.6c0,2,1.6,3.5,3.5,3.5"/>
	<path id="path29" class="st0" d="M786.3,474.3l-92,197.3"/>
	<path id="path31" class="st0" d="M661.4,683.6L379.5,552.2"/>
	<path id="path33" class="st0" d="M435.2,75.1c0-2.9-2.4-5.3-5.3-5.3s-5.3,2.4-5.3,5.3s2.4,5.3,5.3,5.3S435.2,78,435.2,75.1z"/>
	<path id="path35" class="st0" d="M369,549.9H95.7"/>
	<g>
		<path id="path35_5_" class="st1" d="M374.5,550H93.1"/>
		<path id="path35_4_" class="st1" d="M374.5,550l255.1,118.9"/>
	</g>
	<g>
		<path id="path35_7_" class="st1" d="M281.2,984.3h281.4"/>
		<path id="path35_6_" class="st1" d="M281.2,984.3L26.2,865.5"/>
	</g>
	<path id="path37" class="st0" d="M624.7,81.6c0-2.9-2.4-5.3-5.3-5.3c-2.9,0-5.3,2.4-5.3,5.3s2.4,5.3,5.3,5.3
		C622.4,86.9,624.7,84.5,624.7,81.6z"/>
	<path id="path39" class="st0" d="M95.7,59.4c-13.7,0-24.8,11.1-24.8,24.8l0,0"/>
	<path id="path41" class="st0" d="M641.6,84.2c0-13.7-11.1-24.8-24.8-24.8"/>
	<path id="path43" class="st0" d="M70.9,525.1c0,13.7,11.1,24.8,24.8,24.8h0"/>
	<path id="path45" class="st0" d="M661.4,683.6c12.4,5.8,27.2,0.4,33-12"/>
	<path id="path47" class="st0" d="M786.3,474.3c5.8-12.4,0.4-27.2-12-33c0,0,0,0,0,0"/>
	<path id="path49" class="st0" d="M772.6,462.6c0-2.9-2.4-5.3-5.3-5.3c-2.9,0-5.3,2.4-5.3,5.3s2.4,5.3,5.3,5.3
		C770.3,467.9,772.6,465.5,772.6,462.6L772.6,462.6z"/>
	<path id="path51" class="st0" d="M379.5,552.2c-3.3-1.5-6.9-2.3-10.5-2.3"/>
	<path id="path53" class="st0" d="M678.4,664.6c0-2.9-2.4-5.3-5.3-5.3c-2.9,0-5.3,2.4-5.3,5.3s2.4,5.3,5.3,5.3
		C676.1,669.9,678.4,667.6,678.4,664.6L678.4,664.6z"/>
	<path id="path55" class="st0" d="M383.3,534.1c0-2.9-2.4-5.3-5.3-5.3s-5.3,2.4-5.3,5.3s2.4,5.3,5.3,5.3S383.3,537,383.3,534.1z"/>
	<path id="path57" class="st0" d="M98.4,522c0-2.9-2.4-5.3-5.3-5.3s-5.3,2.4-5.3,5.3c0,0,0,0,0,0c0,2.9,2.4,5.3,5.3,5.3
		S98.4,525,98.4,522C98.4,522,98.4,522,98.4,522z"/>
	<path id="path59" class="st0" d="M641.6,84.2v279.5"/>
	<path id="path61" class="st0" d="M70.9,525.1V84.2"/>
	<path id="path63" class="st0" d="M95.7,59.4h521.2"/>
	<path id="path65" class="st0" d="M102.4,447.6V182.9"/>
	<path id="path67" class="st0" d="M656,386.2l118.4,55.2"/>
	<path id="path69" class="st0" d="M610.1,176.2l0,231.4"/>
	<path id="path71" class="st0" d="M98.4,81.6c0-2.9-2.4-5.3-5.3-5.3s-5.3,2.4-5.3,5.3c0,0,0,0,0,0c0,2.9,2.4,5.3,5.3,5.3
		S98.4,84.5,98.4,81.6C98.4,81.6,98.4,81.6,98.4,81.6z"/>
	<path id="path73" class="st0" d="M562,444.4c-2,0-3.6,1.6-3.6,3.6c0,1.4,0.8,2.7,2.1,3.3"/>
	<path id="path75" class="st0" d="M560.5,451.3l37.1,17.3"/>
	<path id="path77" class="st0" d="M597.5,468.6c2.7,1.3,5.9,0.1,7.2-2.6l0,0"/>
	<path id="path79" class="st0" d="M604.7,466l24.7-53"/>
	<path id="path81" class="st0" d="M634.2,411.2c-1.8-0.8-3.9-0.1-4.8,1.7v0"/>
	<path id="path83" class="st0" d="M634.2,411.2L751.7,466"/>
	<path id="path85" class="st0" d="M753.4,470.8c0.8-1.8,0.1-3.9-1.7-4.8h0"/>
	<path id="path87" class="st0" d="M753.4,470.8l-83.3,178.6"/>
	<path id="path89" class="st0" d="M665.3,651.1c1.8,0.8,3.9,0.1,4.8-1.7"/>
	<path id="path91" class="st0" d="M665.3,651.1l-178.6-83.3"/>
	<path id="path93" class="st0" d="M485,563.1c-0.8,1.8-0.1,3.9,1.7,4.8"/>
	<path id="path95" class="st0" d="M485,563.1l51.7-110.9"/>
	<path id="path97" class="st0" d="M536.7,452.1c1.3-2.7,0.1-5.9-2.6-7.2c-0.7-0.3-1.5-0.5-2.3-0.5"/>
	<path id="path99" class="st0" d="M531.8,444.4h-51.3"/>
	<path id="path101" class="st0" d="M480.5,444.4c-3,0-5.4,2.4-5.4,5.4l0,0"/>
	<path id="path103" class="st0" d="M475.1,449.8v54"/>
	<path id="path105" class="st0" d="M471.5,507.4c2,0,3.6-1.6,3.6-3.6"/>
	<path id="path107" class="st0" d="M471.5,507.4h-62.8"/>
	<path id="path109" class="st0" d="M405.4,505.2c0.6,1.4,1.9,2.3,3.3,2.3"/>
	<path id="path111" class="st0" d="M405.4,505.2c-0.8-2-2.8-3.4-5-3.4"/>
	<path id="path113" class="st0" d="M400.4,501.8h-54.9"/>
	<path id="path115" class="st0" d="M345.5,501.8c-2.2,0-4.2,1.3-5,3.4"/>
	<path id="path117" class="st0" d="M337.2,507.4c1.5,0,2.8-0.9,3.3-2.3"/>
	<path id="path119" class="st0" d="M337.2,507.4H278"/>
	<path id="path121" class="st0" d="M278,507.4c-3,0-5.4,2.4-5.4,5.4l0,0"/>
	<path id="path123" class="st0" d="M272.6,512.8v2.3"/>
	<path id="path125" class="st0" d="M269,518.7c2,0,3.6-1.6,3.6-3.6"/>
	<path id="path127" class="st0" d="M269,518.7H139.4"/>
	<path id="path129" class="st0" d="M135.8,515.1c0,2,1.6,3.6,3.6,3.6"/>
	<path id="path131" class="st0" d="M135.8,515.1v-58.5"/>
	<path id="path133" class="st0" d="M135.8,456.6c0-3-2.4-5.4-5.4-5.4h0"/>
	<path id="path135" class="st0" d="M130.4,451.2h-24.5"/>
	<path id="path137" class="st0" d="M105.9,179.4h159.5"/>
	<path id="path139" class="st0" d="M265.4,179.4c3,0,5.4-2.4,5.4-5.4v0"/>
	<path id="path141" class="st0" d="M270.8,174v-2.3"/>
	<path id="path143" class="st0" d="M274.4,168.1c-2,0-3.6,1.6-3.6,3.6"/>
	<path id="path145" class="st0" d="M274.4,168.1h58.5"/>
	<path id="path147" class="st0" d="M332.9,168.1c2.2,0,4.2-1.3,5-3.4"/>
	<path id="path149" class="st0" d="M341.2,162.5c-1.5,0-2.8,0.9-3.3,2.3"/>
	<path id="path151" class="st0" d="M341.2,162.5h63.4"/>
	<path id="path153" class="st0" d="M408,164.8c-0.6-1.4-1.9-2.3-3.3-2.3"/>
	<path id="path155" class="st0" d="M408,164.8c0.8,2,2.8,3.4,5,3.4"/>
	<path id="path157" class="st0" d="M413,168.1h59.7"/>
	<path id="path159" class="st0" d="M475.8,169.9c-0.6-1.1-1.8-1.8-3.1-1.8"/>
	<path id="path161" class="st0" d="M475.8,169.9c1,1.7,2.7,2.7,4.7,2.7"/>
	<path id="path163" class="st0" d="M480.5,172.6h126"/>
	<path id="path165" class="st0" d="M610.1,176.2c0-2-1.6-3.6-3.6-3.6l0,0"/>
	<path id="path167" class="st0" d="M610.1,176.2v264.6"/>
	<path id="path169" class="st0" d="M606.5,444.4c2,0,3.6-1.6,3.6-3.6l0,0"/>
	<path id="path171" class="st0" d="M606.5,444.4H562"/>
	<g id="text3418">
		<path id="path3423" class="st0" d="M111.9,529.6v9.8h5.4v-3.3c0-0.2,0-0.3,0.1-0.4c0.1-0.1,0.2-0.1,0.3-0.1c0.1,0,0.2,0,0.3,0.1
			c0.1,0.1,0.1,0.2,0.1,0.4v4.1h-9.1c-0.2,0-0.3,0-0.4-0.1s-0.1-0.2-0.1-0.3c0-0.1,0-0.2,0.1-0.3c0.1-0.1,0.2-0.1,0.4-0.1h2v-9.8h-2
			c-0.2,0-0.3,0-0.4-0.1c-0.1-0.1-0.1-0.2-0.1-0.3c0-0.1,0-0.2,0.1-0.3c0.1-0.1,0.2-0.1,0.4-0.1h4.7c0.2,0,0.3,0,0.4,0.1
			c0.1,0.1,0.1,0.2,0.1,0.3c0,0.1,0,0.2-0.1,0.3c-0.1,0.1-0.2,0.1-0.4,0.1H111.9L111.9,529.6z"/>
		<path id="path3425" class="st0" d="M125.7,527.8v11.6h2.8c0.2,0,0.3,0,0.4,0.1c0.1,0.1,0.1,0.2,0.1,0.3c0,0.1,0,0.2-0.1,0.3
			c-0.1,0.1-0.2,0.1-0.4,0.1h-6.4c-0.2,0-0.3,0-0.4-0.1c-0.1-0.1-0.1-0.2-0.1-0.3c0-0.1,0-0.2,0.1-0.3c0.1-0.1,0.2-0.1,0.4-0.1h2.8
			v-10.5l-2.7,0.8c-0.1,0-0.2,0.1-0.3,0.1c-0.1,0-0.2,0-0.3-0.1c-0.1-0.1-0.1-0.2-0.1-0.3c0-0.1,0-0.2,0.1-0.3
			c0.1-0.1,0.2-0.1,0.3-0.2L125.7,527.8L125.7,527.8z"/>
		<path id="path3427" class="st0" d="M153.5,533.9v1.2h-8.4v-1.2H153.5z"/>
		<path id="path3429" class="st0" d="M171.9,529.6v9.8h5.4v-3.3c0-0.2,0-0.3,0.1-0.4c0.1-0.1,0.2-0.1,0.3-0.1c0.1,0,0.2,0,0.3,0.1
			c0.1,0.1,0.1,0.2,0.1,0.4v4.1h-9.1c-0.2,0-0.3,0-0.4-0.1s-0.1-0.2-0.1-0.3c0-0.1,0-0.2,0.1-0.3c0.1-0.1,0.2-0.1,0.4-0.1h2v-9.8h-2
			c-0.2,0-0.3,0-0.4-0.1c-0.1-0.1-0.1-0.2-0.1-0.3c0-0.1,0-0.2,0.1-0.3c0.1-0.1,0.2-0.1,0.4-0.1h4.7c0.2,0,0.3,0,0.4,0.1
			c0.1,0.1,0.1,0.2,0.1,0.3c0,0.1,0,0.2-0.1,0.3c-0.1,0.1-0.2,0.1-0.4,0.1H171.9L171.9,529.6z"/>
		<path id="path3431" class="st0" d="M189.7,536.1h-8.4c0.1,1.1,0.6,1.9,1.3,2.6c0.7,0.6,1.7,1,2.8,1c0.6,0,1.3-0.1,1.9-0.3
			c0.7-0.2,1.2-0.5,1.6-0.8c0.1-0.1,0.2-0.1,0.3-0.1c0.1,0,0.2,0,0.3,0.1c0.1,0.1,0.1,0.2,0.1,0.3c0,0.1-0.1,0.2-0.2,0.3
			c-0.3,0.3-0.9,0.6-1.7,0.9c-0.8,0.3-1.6,0.4-2.5,0.4c-1.4,0-2.6-0.5-3.5-1.4c-0.9-0.9-1.4-2-1.4-3.3c0-1.2,0.4-2.2,1.3-3.1
			c0.9-0.9,2-1.3,3.3-1.3c1.3,0,2.4,0.4,3.3,1.3C189.3,533.6,189.8,534.8,189.7,536.1z M188.9,535.3c-0.2-0.9-0.6-1.6-1.3-2.2
			c-0.7-0.6-1.5-0.8-2.5-0.8s-1.8,0.3-2.5,0.8c-0.7,0.6-1.1,1.3-1.3,2.2H188.9z"/>
		<path id="path3433" class="st0" d="M196.8,532.6v6.8h3.6c0.2,0,0.3,0,0.4,0.1c0.1,0.1,0.1,0.2,0.1,0.3c0,0.1,0,0.2-0.1,0.3
			c-0.1,0.1-0.2,0.1-0.4,0.1h-6.4c-0.2,0-0.3,0-0.4-0.1c-0.1-0.1-0.1-0.2-0.1-0.3c0-0.1,0-0.2,0.1-0.3c0.1-0.1,0.2-0.1,0.4-0.1h2
			v-6.8h-1.8c-0.2,0-0.3,0-0.4-0.1c-0.1-0.1-0.1-0.2-0.1-0.3c0-0.1,0-0.2,0.1-0.3c0.1-0.1,0.2-0.1,0.4-0.1h1.8v-1.2
			c0-0.7,0.3-1.3,0.8-1.8c0.6-0.5,1.3-0.8,2.2-0.8c0.8,0,1.6,0.1,2.5,0.2c0.3,0.1,0.5,0.1,0.6,0.2c0.1,0.1,0.1,0.2,0.1,0.3
			s0,0.2-0.1,0.3c-0.1,0.1-0.2,0.1-0.3,0.1c-0.1,0-0.1,0-0.3,0c-1-0.1-1.8-0.2-2.5-0.2c-0.7,0-1.3,0.2-1.7,0.5
			c-0.4,0.4-0.6,0.8-0.6,1.2v1.2h3.8c0.2,0,0.3,0,0.4,0.1c0.1,0.1,0.1,0.2,0.1,0.3c0,0.1,0,0.2-0.1,0.3c-0.1,0.1-0.2,0.1-0.4,0.1
			H196.8z"/>
		<path id="path3435" class="st0" d="M207.6,531.7h4.5c0.2,0,0.3,0,0.4,0.1s0.1,0.2,0.1,0.3c0,0.1,0,0.2-0.1,0.3s-0.2,0.1-0.4,0.1
			h-4.5v5.5c0,0.5,0.2,0.9,0.6,1.2c0.4,0.3,0.9,0.5,1.7,0.5c0.6,0,1.2-0.1,1.8-0.2c0.6-0.2,1.1-0.4,1.5-0.6c0.1-0.1,0.2-0.1,0.3-0.1
			c0.1,0,0.2,0,0.3,0.1c0.1,0.1,0.1,0.2,0.1,0.3c0,0.1,0,0.2-0.1,0.3c-0.2,0.2-0.7,0.4-1.5,0.7c-0.8,0.2-1.6,0.4-2.3,0.4
			c-1,0-1.7-0.2-2.3-0.7s-0.8-1.1-0.8-1.8v-5.5h-1.5c-0.2,0-0.3,0-0.4-0.1c-0.1-0.1-0.1-0.2-0.1-0.3c0-0.1,0-0.2,0.1-0.3
			c0.1-0.1,0.2-0.1,0.4-0.1h1.5v-2.4c0-0.2,0-0.3,0.1-0.4c0.1-0.1,0.2-0.1,0.3-0.1c0.1,0,0.2,0,0.3,0.1c0.1,0.1,0.1,0.2,0.1,0.4
			V531.7z"/>
		<path id="path3437" class="st0" d="M245.7,528.8v13.1h2c0.2,0,0.3,0,0.4,0.1c0.1,0.1,0.1,0.2,0.1,0.3c0,0.1,0,0.2-0.1,0.3
			c-0.1,0.1-0.2,0.1-0.4,0.1h-2.8v-14.8h2.8c0.2,0,0.3,0,0.4,0.1c0.1,0.1,0.1,0.2,0.1,0.3c0,0.1,0,0.2-0.1,0.3
			c-0.1,0.1-0.2,0.1-0.4,0.1H245.7z"/>
		<path id="path3439" class="st0" d="M255.6,531.7h4.5c0.2,0,0.3,0,0.4,0.1c0.1,0.1,0.1,0.2,0.1,0.3c0,0.1,0,0.2-0.1,0.3
			c-0.1,0.1-0.2,0.1-0.4,0.1h-4.5v5.5c0,0.5,0.2,0.9,0.6,1.2c0.4,0.3,0.9,0.5,1.7,0.5c0.6,0,1.2-0.1,1.8-0.2
			c0.6-0.2,1.1-0.4,1.5-0.6c0.1-0.1,0.2-0.1,0.3-0.1c0.1,0,0.2,0,0.3,0.1c0.1,0.1,0.1,0.2,0.1,0.3c0,0.1,0,0.2-0.1,0.3
			c-0.2,0.2-0.7,0.4-1.5,0.7c-0.8,0.2-1.6,0.4-2.3,0.4c-1,0-1.7-0.2-2.3-0.7c-0.6-0.4-0.8-1.1-0.8-1.8v-5.5h-1.5
			c-0.2,0-0.3,0-0.4-0.1c-0.1-0.1-0.1-0.2-0.1-0.3c0-0.1,0-0.2,0.1-0.3c0.1-0.1,0.2-0.1,0.4-0.1h1.5v-2.4c0-0.2,0-0.3,0.1-0.4
			c0.1-0.1,0.2-0.1,0.3-0.1c0.1,0,0.2,0,0.3,0.1c0.1,0.1,0.1,0.2,0.1,0.4L255.6,531.7L255.6,531.7z"/>
		<path id="path3441" class="st0" d="M273.8,536c0,1.3-0.4,2.3-1.3,3.2c-0.9,0.9-2,1.3-3.2,1.3c-1.3,0-2.4-0.4-3.3-1.3
			c-0.9-0.9-1.3-2-1.3-3.2c0-1.3,0.4-2.3,1.3-3.2c0.9-0.9,2-1.3,3.3-1.3c1.3,0,2.3,0.4,3.2,1.3C273.4,533.6,273.8,534.7,273.8,536z
			 M273,536c0-1-0.4-1.9-1.1-2.6c-0.7-0.7-1.6-1.1-2.7-1.1s-1.9,0.4-2.7,1.1c-0.7,0.7-1.1,1.6-1.1,2.6c0,1,0.4,1.9,1.1,2.6
			c0.7,0.7,1.6,1.1,2.7,1.1s1.9-0.4,2.7-1.1C272.6,537.9,273,537,273,536z"/>
		<path id="path3443" class="st0" d="M278.2,531.7v1.5c0.5-0.6,1-1,1.6-1.3c0.6-0.3,1.2-0.4,2-0.4c0.8,0,1.6,0.2,2.2,0.6
			c0.7,0.4,1.2,0.9,1.6,1.6c0.4,0.7,0.6,1.4,0.6,2.1c0,1.2-0.4,2.2-1.3,3c-0.8,0.8-1.9,1.3-3.1,1.3c-1.5,0-2.7-0.6-3.6-1.8v4.9h2
			c0.2,0,0.3,0,0.4,0.1c0.1,0.1,0.1,0.2,0.1,0.3c0,0.1,0,0.2-0.1,0.3c-0.1,0.1-0.2,0.1-0.4,0.1h-3.9c-0.2,0-0.3,0-0.4-0.1
			c-0.1-0.1-0.1-0.2-0.1-0.3c0-0.1,0-0.2,0.1-0.3c0.1-0.1,0.2-0.1,0.4-0.1h1.1v-10.6h-1.1c-0.2,0-0.3,0-0.4-0.1
			c-0.1-0.1-0.1-0.2-0.1-0.3c0-0.1,0-0.2,0.1-0.3c0.1-0.1,0.2-0.1,0.4-0.1H278.2z M285.3,535.7c0-0.9-0.3-1.8-1-2.4
			c-0.7-0.7-1.5-1-2.5-1c-1,0-1.8,0.3-2.5,1c-0.7,0.7-1,1.5-1,2.4c0,0.9,0.3,1.8,1,2.4c0.7,0.7,1.5,1,2.5,1c1,0,1.8-0.3,2.5-1
			C284.9,537.5,285.3,536.6,285.3,535.7z"/>
		<path id="path3445" class="st0" d="M292.8,541.9v-13.1h-2c-0.2,0-0.3,0-0.4-0.1s-0.1-0.2-0.1-0.3c0-0.1,0-0.2,0.1-0.3
			s0.2-0.1,0.4-0.1h2.8v14.8h-2.8c-0.2,0-0.3,0-0.4-0.1c-0.1-0.1-0.1-0.2-0.1-0.3c0-0.1,0-0.2,0.1-0.3s0.2-0.1,0.4-0.1H292.8z"/>
	</g>
	<g>
		<path id="path31_3_" class="st0" d="M-140.5,608.6l-281.9-131.4"/>
		<path id="path35_3_" class="st0" d="M-433,474.8h-273.3"/>
	</g>
	<path id="path35_8_" class="st2" d="M262.5,516H-18.9"/>
	<path class="st0" d="M95.7,1510.4"/>
	<path class="st3" d="M841.6,215.9"/>
	<g>
		<line class="st0" x1="95.7" y1="550" x2="95.7" y2="897.9"/>
		<line class="st3" x1="289.6" y1="940.8" x2="363" y2="609.4"/>
		<line class="st3" x1="483.5" y1="983.8" x2="630.4" y2="668.9"/>
	</g>
	<line class="st3" x1="398" y1="1167.3" x2="483.5" y2="983.8"/>
	<path class="st4" d="M998.6,750.6"/>
	<line class="st4" x1="95.7" y1="550.6" x2="630.3" y2="669"/>
	<line class="st4" x1="-276" y1="815.5" x2="998.6" y2="1098"/>
	<rect x="1240.6" y="174.4" class="st5" width="108" height="442.6"/>
	<rect x="1348.6" y="174.4" class="st5" width="108" height="442.6"/>
	<rect x="1456.6" y="174.4" class="st5" width="108" height="442.6"/>
	<rect x="1024.6" y="174.4" class="st5" width="108" height="442.6"/>
	<rect x="1132.6" y="174.4" class="st5" width="108" height="442.6"/>
	<g>
		<g>
			<path id="path35_12_" class="st1" d="M1294.6,172.7l-275,59.7"/>
			<path id="path35_11_" class="st1" d="M1294.6,172.7l274.5,62"/>
		</g>
		<g>
			<path id="path35_10_" class="st1" d="M1295.7,616.9l275-59.7"/>
			<path id="path35_9_" class="st1" d="M1295.7,616.9l-274.5-62"/>
		</g>
		<g>
			<line class="st0" x1="1022.2" y1="231.9" x2="1096" y2="571.8"/>
			<line class="st3" x1="1294.6" y1="572.7" x2="1296" y2="233.2"/>
			<line class="st3" x1="1493.2" y1="573.5" x2="1569.9" y2="234.6"/>
		</g>
	</g>
</g>
<g id="Isolation_Mode">
	<g>
		<path id="path31_1_" class="st0" d="M543.5,1401.3L-126.4,1089"/>
		<path id="path35_1_" class="st0" d="M-151.3,1083.4h-649.4"/>
	</g>
	<g>
		<path id="path31_2_" class="st0" d="M711.8,683.6l283.7,127.6"/>
		<path id="path35_2_" class="st0" d="M1006,813.4l273.3-3.7"/>
	</g>
	<line class="st0" x1="-149.9" y1="907.8" x2="737.3" y2="1098"/>
	<line class="st0" x1="270.4" y1="1045.9" x2="1012.9" y2="1045.9"/>
	<line class="st0" x1="277.6" y1="1045.9" x2="-386.2" y2="713.3"/>
</g>
</svg>
